NotoSans-CondensedSemiBoldItalic.ufo
<glyph name="uni0246" format="2">
  <advance width="394"/>
  <unicode hex="0246"/>
  <anchor x="141" y="0" name="bottom"/>
  <anchor x="292" y="714" name="top"/>
  <anchor x="469" y="714" name="topright"/>
  <outline>
    <contour>
      <point x="108" y="-75" type="line"/>
      <point x="177" y="-75" type="line"/>
      <point x="425" y="760" type="line"/>
      <point x="357" y="760" type="line"/>
    </contour>
    <component base="E"/>
  </outline>
</glyph>
<glyph name="Archaicsampi" format="2">
  <advance width="572"/>
  <unicode hex="0372"/>
  <anchor x="232" y="0" name="bottom"/>
  <anchor x="383" y="714" name="top"/>
  <outline>
    <contour>
      <point x="162" y="0" type="line"/>
      <point x="287" y="0" type="line"/>
      <point x="415" y="603" type="line"/>
      <point x="534" y="603" type="line"/>
      <point x="558" y="714" type="line"/>
      <point x="195" y="714" type="line"/>
      <point x="171" y="603" type="line"/>
      <point x="290" y="603" type="line"/>
    </contour>
    <contour>
      <point x="49" y="396" type="line"/>
      <point x="171" y="396" type="line"/>
      <point x="239" y="714" type="line"/>
      <point x="116" y="714" type="line"/>
    </contour>
    <contour>
      <point x="444" y="396" type="line"/>
      <point x="566" y="396" type="line"/>
      <point x="634" y="714" type="line"/>
      <point x="511" y="714" type="line"/>
    </contour>
  </outline>
</glyph>
<glyph name="Theta" format="2">
  <advance width="553"/>
  <unicode hex="0398"/>
  <anchor x="221" y="0" name="bottom"/>
  <anchor x="372" y="714" name="top"/>
  <outline>
    <contour>
      <point x="224" y="-10" type="curve" smooth="yes"/>
      <point x="428" y="-10"/>
      <point x="544" y="267"/>
      <point x="544" y="502" type="curve" smooth="yes"/>
      <point x="544" y="651"/>
      <point x="484" y="725"/>
      <point x="358" y="725" type="curve" smooth="yes"/>
      <point x="140" y="725"/>
      <point x="35" y="423"/>
      <point x="35" y="217" type="curve" smooth="yes"/>
      <point x="35" y="61"/>
      <point x="95" y="-10"/>
    </contour>
    <contour>
      <point x="232" y="102" type="curve" smooth="yes"/>
      <point x="189" y="102"/>
      <point x="164" y="130"/>
      <point x="164" y="216" type="curve" smooth="yes"/>
      <point x="164" y="335"/>
      <point x="222" y="614"/>
      <point x="349" y="614" type="curve" smooth="yes"/>
      <point x="393" y="614"/>
      <point x="418" y="579"/>
      <point x="418" y="505" type="curve" smooth="yes"/>
      <point x="418" y="401"/>
      <point x="361" y="102"/>
    </contour>
    <contour>
      <point x="218" y="313" type="line"/>
      <point x="342" y="313" type="line"/>
      <point x="364" y="417" type="line"/>
      <point x="240" y="417" type="line"/>
    </contour>
  </outline>
</glyph>
<glyph name="rho" format="2">
  <advance width="452"/>
  <unicode hex="03C1"/>
  <anchor x="120" y="-240" name="bottom"/>
  <anchor x="283" y="530" name="top"/>
  <outline>
    <contour>
      <point x="-56" y="-240" type="line"/>
      <point x="63" y="-240" type="line"/>
      <point x="102" y="-48" type="line" smooth="yes"/>
      <point x="107" y="-24"/>
      <point x="114" y="6"/>
      <point x="116" y="31" type="curve"/>
      <point x="137" y="6"/>
      <point x="171" y="-10"/>
      <point x="218" y="-10" type="curve" smooth="yes"/>
      <point x="362" y="-10"/>
      <point x="435" y="231"/>
      <point x="435" y="379" type="curve" smooth="yes"/>
      <point x="435" y="487"/>
      <point x="382" y="555"/>
      <point x="276" y="555" type="curve" smooth="yes"/>
      <point x="147" y="555"/>
      <point x="92" y="467"/>
      <point x="55" y="291" type="curve" smooth="yes"/>
    </contour>
    <contour>
      <point x="196" y="95" type="curve" smooth="yes"/>
      <point x="170" y="95"/>
      <point x="152" y="113"/>
      <point x="142" y="133" type="curve"/>
      <point x="173" y="279" type="line" smooth="yes"/>
      <point x="200" y="410"/>
      <point x="224" y="452"/>
      <point x="267" y="452" type="curve" smooth="yes"/>
      <point x="294" y="452"/>
      <point x="312" y="427"/>
      <point x="312" y="378" type="curve" smooth="yes"/>
      <point x="312" y="296"/>
      <point x="273" y="95"/>
    </contour>
  </outline>
</glyph>
<glyph name="upsilon" format="2">
  <advance width="454"/>
  <unicode hex="03C5"/>
  <anchor x="172" y="0" name="bottom"/>
  <anchor x="284" y="530" name="top"/>
  <outline>
    <contour>
      <point x="172" y="-9" type="curve" smooth="yes"/>
      <point x="386" y="-9"/>
      <point x="437" y="297"/>
      <point x="440" y="545" type="curve"/>
      <point x="321" y="545" type="line"/>
      <point x="317" y="392"/>
      <point x="282" y="98"/>
      <point x="185" y="98" type="curve" smooth="yes"/>
      <point x="162" y="98"/>
      <point x="149" y="115"/>
      <point x="149" y="151" type="curve" smooth="yes"/>
      <point x="149" y="172"/>
      <point x="153" y="201"/>
      <point x="159" y="229" type="curve" smooth="yes"/>
      <point x="226" y="545" type="line"/>
      <point x="106" y="545" type="line"/>
      <point x="43" y="248" type="line" smooth="yes"/>
      <point x="34" y="204"/>
      <point x="28" y="163"/>
      <point x="28" y="132" type="curve" smooth="yes"/>
      <point x="28" y="43"/>
      <point x="71" y="-9"/>
    </contour>
  </outline>
</glyph>
<glyph name="phi" format="2">
  <advance width="612"/>
  <unicode hex="03C6"/>
  <anchor x="199" y="-240" name="bottom"/>
  <anchor x="362" y="530" name="top"/>
  <outline>
    <contour>
      <point x="134" y="-240" type="line"/>
      <point x="251" y="-240" type="line"/>
      <point x="301" y="-6" type="line"/>
      <point x="481" y="3"/>
      <point x="591" y="191"/>
      <point x="591" y="381" type="curve" smooth="yes"/>
      <point x="591" y="495"/>
      <point x="535" y="554"/>
      <point x="446" y="554" type="curve" smooth="yes"/>
      <point x="342" y="554"/>
      <point x="288" y="485"/>
      <point x="263" y="371" type="curve" smooth="yes"/>
      <point x="206" y="97" type="line"/>
      <point x="166" y="106"/>
      <point x="144" y="140"/>
      <point x="144" y="196" type="curve" smooth="yes"/>
      <point x="144" y="303"/>
      <point x="194" y="417"/>
      <point x="258" y="498" type="curve"/>
      <point x="173" y="554" type="line"/>
      <point x="78" y="449"/>
      <point x="22" y="316"/>
      <point x="22" y="193" type="curve" smooth="yes"/>
      <point x="22" y="65"/>
      <point x="93" y="6"/>
      <point x="183" y="-6" type="curve"/>
    </contour>
    <contour>
      <point x="323" y="97" type="curve"/>
      <point x="379" y="362" type="line" smooth="yes"/>
      <point x="393" y="432"/>
      <point x="410" y="451"/>
      <point x="434" y="451" type="curve" smooth="yes"/>
      <point x="456" y="451"/>
      <point x="470" y="427"/>
      <point x="470" y="384" type="curve" smooth="yes"/>
      <point x="470" y="292"/>
      <point x="437" y="116"/>
    </contour>
  </outline>
</glyph>
<glyph name="uni03DA" format="2">
  <advance width="427"/>
  <unicode hex="03DA"/>
  <anchor x="158" y="0" name="bottom"/>
  <anchor x="309" y="714" name="top"/>
  <outline>
    <contour>
      <point x="144.992" y="0" type="line"/>
      <point x="269.992" y="0" type="line"/>
      <point x="321" y="241" type="line"/>
      <point x="254" y="241" type="line" smooth="yes"/>
      <point x="194" y="241"/>
      <point x="176" y="279"/>
      <point x="176" y="345" type="curve" smooth="yes"/>
      <point x="176" y="445"/>
      <point x="237" y="614"/>
      <point x="351" y="614" type="curve" smooth="yes"/>
      <point x="381" y="614"/>
      <point x="409" y="603"/>
      <point x="437" y="581" type="curve"/>
      <point x="497" y="681" type="line"/>
      <point x="456" y="712"/>
      <point x="401" y="724"/>
      <point x="348" y="724" type="curve" smooth="yes"/>
      <point x="158" y="724"/>
      <point x="44" y="522"/>
      <point x="44" y="340" type="curve" smooth="yes"/>
      <point x="44" y="229"/>
      <point x="85" y="151"/>
      <point x="173" y="135" type="curve"/>
    </contour>
  </outline>
</glyph>
<glyph name="uni0488" format="2">
  <advance width="908"/>
  <unicode hex="0488"/>
  <outline>
    <contour>
      <point x="585" y="458" type="curve"/>
      <point x="634" y="458" type="line"/>
      <point x="637" y="485"/>
      <point x="657" y="498"/>
      <point x="695" y="498" type="curve" smooth="yes"/>
      <point x="739" y="498"/>
      <point x="755" y="485"/>
      <point x="758" y="458" type="curve"/>
      <point x="806" y="458" type="line"/>
      <point x="801" y="523"/>
      <point x="756" y="557"/>
      <point x="696" y="557" type="curve" smooth="yes"/>
      <point x="634" y="557"/>
      <point x="588" y="518"/>
    </contour>
    <contour>
      <point x="76" y="-20" type="curve"/>
      <point x="125" y="-20" type="line"/>
      <point x="128" y="7"/>
      <point x="149" y="20"/>
      <point x="187" y="20" type="curve" smooth="yes"/>
      <point x="230" y="20"/>
      <point x="246" y="6"/>
      <point x="249" y="-20" type="curve"/>
      <point x="297" y="-20" type="line"/>
      <point x="294" y="42"/>
      <point x="253" y="79"/>
      <point x="188" y="79" type="curve" smooth="yes"/>
      <point x="125" y="79"/>
      <point x="79" y="40"/>
    </contour>
    <contour>
      <point x="327" y="-156" type="curve"/>
      <point x="376" y="-156" type="line"/>
      <point x="378" y="-129"/>
      <point x="399" y="-116"/>
      <point x="437" y="-116" type="curve" smooth="yes"/>
      <point x="481" y="-116"/>
      <point x="497" y="-129"/>
      <point x="500" y="-156" type="curve"/>
      <point x="548" y="-156" type="line"/>
      <point x="544" y="-92"/>
      <point x="498" y="-57"/>
      <point x="438" y="-57" type="curve" smooth="yes"/>
      <point x="376" y="-57"/>
      <point x="330" y="-95"/>
    </contour>
    <contour>
      <point x="4" y="222" type="curve"/>
      <point x="53" y="222" type="line"/>
      <point x="55" y="249"/>
      <point x="76" y="261"/>
      <point x="115" y="261" type="curve" smooth="yes"/>
      <point x="158" y="261"/>
      <point x="174" y="249"/>
      <point x="177" y="222" type="curve"/>
      <point x="225" y="222" type="line"/>
      <point x="222" y="283"/>
      <point x="182" y="321"/>
      <point x="116" y="321" type="curve" smooth="yes"/>
      <point x="54" y="321"/>
      <point x="7" y="282"/>
    </contour>
    <contour>
      <point x="76" y="458" type="curve"/>
      <point x="125" y="458" type="line"/>
      <point x="127" y="485"/>
      <point x="148" y="498"/>
      <point x="187" y="498" type="curve" smooth="yes"/>
      <point x="230" y="498"/>
      <point x="246" y="485"/>
      <point x="249" y="458" type="curve"/>
      <point x="297" y="458" type="line"/>
      <point x="294" y="520"/>
      <point x="253" y="557"/>
      <point x="188" y="557" type="curve" smooth="yes"/>
      <point x="128" y="557"/>
      <point x="79" y="520"/>
    </contour>
    <contour>
      <point x="585" y="-20" type="curve"/>
      <point x="634" y="-20" type="line"/>
      <point x="637" y="7"/>
      <point x="658" y="20"/>
      <point x="695" y="20" type="curve" smooth="yes"/>
      <point x="739" y="20"/>
      <point x="755" y="6"/>
      <point x="758" y="-20" type="curve"/>
      <point x="806" y="-20" type="line"/>
      <point x="801" y="45"/>
      <point x="756" y="79"/>
      <point x="696" y="79" type="curve" smooth="yes"/>
      <point x="634" y="79"/>
      <point x="588" y="40"/>
    </contour>
    <contour>
      <point x="658" y="222" type="curve"/>
      <point x="707" y="222" type="line"/>
      <point x="709" y="249"/>
      <point x="730" y="261"/>
      <point x="769" y="261" type="curve" smooth="yes"/>
      <point x="812" y="261"/>
      <point x="828" y="249"/>
      <point x="831" y="222" type="curve"/>
      <point x="879" y="222" type="line"/>
      <point x="876" y="283"/>
      <point x="836" y="321"/>
      <point x="770" y="321" type="curve" smooth="yes"/>
      <point x="708" y="321"/>
      <point x="661" y="282"/>
    </contour>
    <contour>
      <point x="327" y="597" type="curve"/>
      <point x="376" y="597" type="line"/>
      <point x="379" y="624"/>
      <point x="399" y="637"/>
      <point x="437" y="637" type="curve" smooth="yes"/>
      <point x="481" y="637"/>
      <point x="497" y="624"/>
      <point x="500" y="597" type="curve"/>
      <point x="548" y="597" type="line"/>
      <point x="545" y="661"/>
      <point x="502" y="696"/>
      <point x="438" y="696" type="curve" smooth="yes"/>
      <point x="379" y="696"/>
      <point x="332" y="659"/>
    </contour>
  </outline>
</glyph>
<glyph name="uni048F" format="2">
  <advance width="453"/>
  <unicode hex="048F"/>
  <anchor x="121" y="-236" name="bottom"/>
  <anchor x="283" y="530" name="top"/>
  <anchor x="489" y="530" name="topright"/>
  <outline>
    <contour>
      <point x="281" y="-84" type="line"/>
      <point x="340" y="-66" type="line"/>
      <point x="249" y="230" type="line"/>
      <point x="189" y="212" type="line"/>
    </contour>
    <component base="p"/>
  </outline>
</glyph>
<glyph name="uni1D24" format="2">
  <advance width="445"/>
  <unicode hex="1D24"/>
  <anchor x="172" y="0" name="bottom"/>
  <anchor x="334" y="765" name="top"/>
  <outline>
    <contour>
      <point x="182" y="-11" type="curve" smooth="yes"/>
      <point x="243" y="-11"/>
      <point x="304" y="11"/>
      <point x="347" y="49" type="curve"/>
      <point x="313" y="133" type="line"/>
      <point x="270" y="102"/>
      <point x="241" y="91"/>
      <point x="205" y="91" type="curve" smooth="yes"/>
      <point x="166" y="91"/>
      <point x="144" y="111"/>
      <point x="144" y="148" type="curve" smooth="yes"/>
      <point x="144" y="207"/>
      <point x="198" y="262"/>
      <point x="307" y="315" type="curve"/>
      <point x="324" y="402" type="line"/>
      <point x="444" y="464"/>
      <point x="498" y="532"/>
      <point x="498" y="622" type="curve" smooth="yes"/>
      <point x="498" y="709"/>
      <point x="433" y="765"/>
      <point x="332" y="765" type="curve" smooth="yes"/>
      <point x="270" y="765"/>
      <point x="209" y="743"/>
      <point x="166" y="705" type="curve"/>
      <point x="200" y="622" type="line"/>
      <point x="242" y="652"/>
      <point x="271" y="663"/>
      <point x="308" y="663" type="curve" smooth="yes"/>
      <point x="346" y="663"/>
      <point x="370" y="640"/>
      <point x="370" y="605" type="curve" smooth="yes"/>
      <point x="370" y="551"/>
      <point x="319" y="500"/>
      <point x="206" y="440" type="curve"/>
      <point x="189" y="352" type="line"/>
      <point x="70" y="291"/>
      <point x="16" y="223"/>
      <point x="16" y="133" type="curve" smooth="yes"/>
      <point x="16" y="44"/>
      <point x="80" y="-11"/>
    </contour>
  </outline>
</glyph>
<glyph name="uni1D7B" format="2">
  <advance width="297"/>
  <unicode hex="1D7B"/>
  <anchor x="93" y="0" name="bottom"/>
  <anchor x="205" y="530" name="top"/>
  <outline>
    <contour>
      <point x="28" y="231" type="line"/>
      <point x="250" y="231" type="line"/>
      <point x="270" y="327" type="line"/>
      <point x="49" y="327" type="line"/>
    </contour>
    <component base="uni026A"/>
  </outline>
</glyph>
<glyph name="ll-middleWelsh" format="2">
  <advance width="443"/>
  <unicode hex="1EFB"/>
  <anchor x="54" y="0" name="bottom"/>
  <anchor x="216" y="760" name="top"/>
  <anchor x="369" y="265" name="center_1"/>
  <anchor x="148" y="265" name="center_2"/>
  <anchor x="527" y="760" name="topright_1"/>
  <anchor x="306" y="760" name="topright_2"/>
  <outline>
    <contour>
      <point x="71" y="588" type="line"/>
      <point x="510" y="588" type="line"/>
      <point x="523" y="651" type="line"/>
      <point x="84" y="651" type="line"/>
    </contour>
    <component base="l" xOffset="221"/>
    <component base="l"/>
  </outline>
</glyph>
<glyph name="uni1FEE" format="2">
  <advance width="424"/>
  <unicode hex="1FEE"/>
  <anchor x="263" y="530" name="_top"/>
  <outline>
    <contour>
      <point x="232" y="609" type="line"/>
      <point x="292" y="609" type="line"/>
      <point x="320" y="644"/>
      <point x="370" y="724"/>
      <point x="392" y="763" type="curve"/>
      <point x="394" y="773" type="line"/>
      <point x="293" y="773" type="line"/>
      <point x="284" y="741"/>
      <point x="251" y="656"/>
      <point x="235" y="622" type="curve"/>
    </contour>
    <contour>
      <point x="148" y="601" type="curve" smooth="yes"/>
      <point x="183" y="601"/>
      <point x="213" y="631"/>
      <point x="213" y="679" type="curve" smooth="yes"/>
      <point x="213" y="709"/>
      <point x="197" y="725"/>
      <point x="170" y="725" type="curve" smooth="yes"/>
      <point x="126" y="725"/>
      <point x="102" y="689"/>
      <point x="102" y="647" type="curve" smooth="yes"/>
      <point x="102" y="616"/>
      <point x="118" y="601"/>
    </contour>
    <contour>
      <point x="427" y="601" type="curve" smooth="yes"/>
      <point x="462" y="601"/>
      <point x="492" y="631"/>
      <point x="492" y="679" type="curve" smooth="yes"/>
      <point x="492" y="709"/>
      <point x="476" y="725"/>
      <point x="450" y="725" type="curve" smooth="yes"/>
      <point x="406" y="725"/>
      <point x="382" y="689"/>
      <point x="382" y="647" type="curve" smooth="yes"/>
      <point x="382" y="616"/>
      <point x="398" y="601"/>
    </contour>
  </outline>
</glyph>
<glyph name="uni1FEF" format="2">
  <advance width="424"/>
  <unicode hex="1FEF"/>
  <anchor x="231" y="530" name="_top"/>
  <anchor x="274" y="776" name="top"/>
  <outline>
    <contour>
      <point x="255" y="613" type="curve"/>
      <point x="322" y="613" type="line"/>
      <point x="325" y="625" type="line"/>
      <point x="321" y="656"/>
      <point x="318" y="739"/>
      <point x="318" y="776" type="curve"/>
      <point x="210" y="776" type="line"/>
      <point x="208" y="766" type="line"/>
      <point x="215" y="728"/>
      <point x="240" y="648"/>
    </contour>
  </outline>
</glyph>
<glyph name="uni2012" format="2">
  <advance width="434"/>
  <unicode hex="2012"/>
  <outline>
    <contour>
      <point x="30" y="306" type="line"/>
      <point x="411" y="306" type="line"/>
      <point x="433" y="407" type="line"/>
      <point x="52" y="407" type="line"/>
    </contour>
  </outline>
</glyph>
<glyph name="uni2DF5" format="2">
  <unicode hex="2DF5"/>
  <anchor x="58" y="545" name="_top"/>
  <anchor x="118" y="838" name="top"/>
  <anchor x="268" y="838" name="topright"/>
  <outline>
    <contour>
      <point x="8" y="616" type="curve" smooth="yes"/>
      <point x="29" y="616"/>
      <point x="51" y="623"/>
      <point x="65" y="632" type="curve"/>
      <point x="65" y="673" type="line"/>
      <point x="49" y="663"/>
      <point x="34" y="658"/>
      <point x="22" y="658" type="curve" smooth="yes"/>
      <point x="6" y="658"/>
      <point x="-1" y="669"/>
      <point x="-1" y="691" type="curve" smooth="yes"/>
      <point x="-1" y="727"/>
      <point x="15" y="797"/>
      <point x="66" y="797" type="curve" smooth="yes"/>
      <point x="139" y="797" type="line"/>
      <point x="97" y="620" type="line"/>
      <point x="151" y="620" type="line"/>
      <point x="194" y="797" type="line"/>
      <point x="244" y="797" type="line"/>
      <point x="254" y="838" type="line"/>
      <point x="64" y="838" type="line" smooth="yes"/>
      <point x="-26" y="838"/>
      <point x="-57" y="748"/>
      <point x="-57" y="684" type="curve" smooth="yes"/>
      <point x="-57" y="641"/>
      <point x="-34" y="616"/>
    </contour>
  </outline>
</glyph>
<glyph name="uniA65C" format="2">
  <advance width="709"/>
  <unicode hex="A65C"/>
  <outline>
    <contour>
      <point x="266" y="0" type="line"/>
      <point x="559" y="0" type="line"/>
      <point x="572" y="97" type="line"/>
      <point x="285" y="97" type="line"/>
    </contour>
    <component base="uniA656"/>
  </outline>
</glyph>
<glyph name="uniA666" format="2">
  <advance width="820"/>
  <unicode hex="A666"/>
  <anchor x="292" y="0" name="bottom"/>
  <anchor x="443" y="714" name="top"/>
  <anchor x="771" y="714" name="topright"/>
  <outline>
    <contour>
      <point x="690" y="604" type="line"/>
      <point x="874" y="604" type="line"/>
      <point x="897" y="714" type="line"/>
      <point x="596" y="714" type="line"/>
    </contour>
    <component base="M"/>
  </outline>
</glyph>
<glyph name="uniA680" format="2">
  <advance width="535"/>
  <unicode hex="A680"/>
  <anchor x="166" y="-205" name="bottom"/>
  <anchor x="363" y="714" name="top"/>
  <outline>
    <contour>
      <point x="226" y="655" type="line"/>
      <point x="339" y="655" type="line"/>
      <point x="396" y="920" type="line"/>
      <point x="283" y="920" type="line"/>
    </contour>
    <component base="afii10021"/>
  </outline>
</glyph>
<glyph name="uniA749" format="2">
  <advance width="221"/>
  <unicode hex="A749"/>
  <anchor x="54" y="0" name="bottom"/>
  <anchor x="148" y="265" name="center"/>
  <anchor x="216" y="760" name="top"/>
  <anchor x="306" y="760" name="topright"/>
  <outline>
    <contour>
      <point x="68" y="586" type="line" smooth="yes"/>
      <point x="288" y="586" type="line" smooth="yes"/>
      <point x="307" y="674" type="line" smooth="yes"/>
      <point x="87" y="674" type="line" smooth="yes"/>
    </contour>
    <component base="l"/>
  </outline>
</glyph>
<glyph name="uniA74A" format="2">
  <advance width="536"/>
  <unicode hex="A74A"/>
  <anchor x="212" y="0" name="bottom"/>
  <anchor x="299" y="357" name="center"/>
  <anchor x="363" y="714" name="top"/>
  <anchor x="611" y="714" name="topright"/>
  <outline>
    <contour>
      <point x="4" y="312" type="line"/>
      <point x="543" y="312" type="line"/>
      <point x="565" y="415" type="line"/>
      <point x="26" y="415" type="line"/>
    </contour>
    <component base="O"/>
  </outline>
</glyph>
<glyph name="uniA74B" format="2">
  <advance width="444"/>
  <unicode hex="A74B"/>
  <anchor x="166" y="0" name="bottom"/>
  <anchor x="260" y="265" name="center"/>
  <anchor x="278" y="530" name="top"/>
  <anchor x="480" y="530" name="topright"/>
  <outline>
    <contour>
      <point x="-7" y="234" type="line"/>
      <point x="437" y="234" type="line"/>
      <point x="456" y="323" type="line"/>
      <point x="12" y="323" type="line"/>
    </contour>
    <component base="o"/>
  </outline>
</glyph>
<glyph name="uniA757" format="2">
  <advance width="456"/>
  <unicode hex="A757"/>
  <anchor x="121" y="-239" name="bottom"/>
  <anchor x="284" y="530" name="top"/>
  <anchor x="492" y="530" name="topright"/>
  <outline>
    <contour>
      <point x="92" y="-159" type="line"/>
      <point x="368" y="-159" type="line"/>
      <point x="387" y="-71" type="line"/>
      <point x="111" y="-71" type="line"/>
    </contour>
    <component base="q"/>
  </outline>
</glyph>
<glyph name="uniA758" format="2">
  <advance width="692"/>
  <unicode hex="A758"/>
  <anchor x="176" y="-170" name="bottom"/>
  <anchor x="363" y="714" name="top"/>
  <anchor x="611" y="714" name="topright"/>
  <outline>
    <contour>
      <point x="130" y="-179" type="line"/>
      <point x="536" y="3" type="line" smooth="yes"/>
      <point x="631" y="44"/>
      <point x="677" y="93"/>
      <point x="677" y="187" type="curve" smooth="yes"/>
      <point x="677" y="268"/>
      <point x="626" y="322"/>
      <point x="540" y="322" type="curve"/>
      <point x="539" y="258" type="line"/>
      <point x="589" y="258"/>
      <point x="611" y="224"/>
      <point x="611" y="182" type="curve" smooth="yes"/>
      <point x="611" y="137"/>
      <point x="588" y="97"/>
      <point x="514" y="63" type="curve" smooth="yes"/>
      <point x="106" y="-120" type="line"/>
    </contour>
    <component base="Q"/>
  </outline>
</glyph>
<glyph name="uniA773" format="2">
  <advance width="849"/>
  <unicode hex="A773"/>
  <anchor x="280" y="0" name="bottom"/>
  <anchor x="392" y="545" name="top"/>
  <anchor x="707" y="545" name="topright"/>
  <outline>
    <contour>
      <point x="513" y="-157" type="line"/>
      <point x="599.002" y="-157" type="line"/>
      <point x="823" y="264" type="line"/>
      <point x="737" y="264" type="line"/>
    </contour>
    <contour>
      <point x="550" y="0" type="line"/>
      <point x="789" y="0" type="line"/>
      <point x="810" y="102" type="line"/>
      <point x="571" y="102" type="line"/>
    </contour>
    <component base="m"/>
  </outline>
</glyph>
<glyph name="uniA776" format="2">
  <advance width="607"/>
  <unicode hex="A776"/>
  <anchor x="156" y="0" name="bottom"/>
  <anchor x="268" y="530" name="top"/>
  <outline>
    <contour>
      <point x="270" y="-157" type="line"/>
      <point x="356" y="-157" type="line"/>
      <point x="580" y="264" type="line"/>
      <point x="494" y="264" type="line"/>
    </contour>
    <contour>
      <point x="308" y="0" type="line"/>
      <point x="547" y="0" type="line"/>
      <point x="568" y="102" type="line"/>
      <point x="329" y="102" type="line"/>
    </contour>
    <component base="uni0280"/>
  </outline>
</glyph>
<glyph name="uniA792" format="2">
  <advance width="430"/>
  <unicode hex="A792"/>
  <anchor x="182" y="0" name="bottom"/>
  <anchor x="334" y="714" name="top"/>
  <anchor x="506" y="714" name="topright"/>
  <outline>
    <contour>
      <point x="12" y="315" type="line"/>
      <point x="346" y="315" type="line"/>
      <point x="365" y="410" type="line"/>
      <point x="32" y="410" type="line"/>
    </contour>
    <component base="C"/>
  </outline>
</glyph>
<glyph name="uniA7A7" format="2">
  <advance width="315"/>
  <unicode hex="A7A7"/>
  <anchor x="102" y="0" name="bottom"/>
  <anchor x="214" y="530" name="top"/>
  <anchor x="351" y="530" name="topright"/>
  <outline>
    <contour>
      <point x="-16" y="181" type="line"/>
      <point x="295" y="241" type="line"/>
      <point x="312" y="324" type="line"/>
      <point x="1" y="264" type="line"/>
    </contour>
    <component base="r"/>
  </outline>
</glyph>
<glyph name="uniA7AE" format="2">
  <advance width="480"/>
  <unicode hex="A7AE"/>
  <anchor x="182" y="0" name="bottom"/>
  <anchor x="334" y="714" name="top"/>
  <outline>
    <contour>
      <point x="545" y="714" type="line"/>
      <point x="122" y="714" type="line"/>
      <point x="106" y="641" type="line"/>
      <point x="245" y="618" type="line"/>
      <point x="133" y="96" type="line"/>
      <point x="-15" y="73" type="line"/>
      <point x="-30" y="0" type="line"/>
      <point x="393" y="0" type="line"/>
      <point x="408" y="73" type="line"/>
      <point x="270" y="96" type="line"/>
      <point x="382" y="618" type="line"/>
      <point x="529" y="641" type="line"/>
    </contour>
  </outline>
</glyph>
<glyph name="uniFE21" format="2">
  <unicode hex="FE21"/>
  <anchor x="59" y="545" name="_top"/>
  <outline>
    <contour>
      <point x="293" y="586" type="curve"/>
      <point x="373" y="586" type="line"/>
      <point x="365" y="716"/>
      <point x="276" y="781"/>
      <point x="109" y="781" type="curve"/>
      <point x="90" y="692" type="line"/>
      <point x="204" y="692"/>
      <point x="272" y="659"/>
    </contour>
  </outline>
</glyph>
<glyph name="uniFE23" format="2">
  <unicode hex="FE23"/>
  <anchor x="50" y="545" name="_top"/>
  <outline>
    <contour>
      <point x="232" y="608" type="curve" smooth="yes"/>
      <point x="301" y="608"/>
      <point x="368" y="654"/>
      <point x="396" y="752" type="curve"/>
      <point x="333" y="752" type="line"/>
      <point x="317" y="715"/>
      <point x="288" y="697"/>
      <point x="242" y="697" type="curve" smooth="yes"/>
      <point x="194" y="697"/>
      <point x="143" y="710"/>
      <point x="89" y="725" type="curve"/>
      <point x="69" y="635" type="line"/>
      <point x="118" y="621"/>
      <point x="172" y="608"/>
    </contour>
  </outline>
</glyph>
<glyph name="uniFE2F" format="2">
  <unicode hex="FE2F"/>
  <anchor x="60" y="545" name="_top"/>
  <outline>
    <contour>
      <point x="-52" y="608" type="line"/>
      <point x="156" y="608" type="line" smooth="yes"/>
      <point x="213" y="608"/>
      <point x="226" y="640"/>
      <point x="226" y="677" type="curve" smooth="yes"/>
      <point x="226" y="717"/>
      <point x="208" y="739"/>
      <point x="169" y="739" type="curve" smooth="yes"/>
      <point x="138" y="739"/>
      <point x="116" y="724"/>
      <point x="113" y="696" type="curve"/>
      <point x="-52" y="696" type="line"/>
    </contour>
  </outline>
</glyph>
<glyph name="tbar.sc" format="2">
  <advance width="329"/>
  <anchor x="102" y="0" name="bottom"/>
  <anchor x="226" y="580" name="top"/>
  <anchor x="206" y="290" name="center"/>
  <anchor x="370" y="580" name="topright"/>
  <outline>
    <contour>
      <point x="34" y="240" type="line"/>
      <point x="282" y="240" type="line"/>
      <point x="301" y="330" type="line"/>
      <point x="54" y="330" type="line"/>
    </contour>
    <component base="t.sc" xOffset="-1"/>
  </outline>
</glyph>
<glyph name="uni030003060308" format="2">
  <anchor x="261" y="530" name="_top"/>
  <anchor x="322" y="1000" name="top"/>
  <outline>
    <contour>
      <point x="196" y="598" type="curve" smooth="yes"/>
      <point x="232" y="598"/>
      <point x="259" y="631"/>
      <point x="259" y="674" type="curve" smooth="yes"/>
      <point x="259" y="698"/>
      <point x="245" y="711"/>
      <point x="221" y="711" type="curve" smooth="yes"/>
      <point x="182" y="711"/>
      <point x="155" y="681"/>
      <point x="155" y="638" type="curve" smooth="yes"/>
      <point x="155" y="611"/>
      <point x="168" y="598"/>
    </contour>
    <contour>
      <point x="367" y="598" type="curve" smooth="yes"/>
      <point x="402" y="598"/>
      <point x="429" y="632"/>
      <point x="429" y="674" type="curve" smooth="yes"/>
      <point x="429" y="698"/>
      <point x="415" y="711"/>
      <point x="391" y="711" type="curve" smooth="yes"/>
      <point x="352" y="711"/>
      <point x="325" y="681"/>
      <point x="325" y="638" type="curve" smooth="yes"/>
      <point x="325" y="611"/>
      <point x="339" y="598"/>
    </contour>
    <contour>
      <point x="305" y="729" type="curve" smooth="yes"/>
      <point x="396" y="729"/>
      <point x="443" y="778"/>
      <point x="464" y="848" type="curve"/>
      <point x="394" y="848" type="line"/>
      <point x="378" y="806"/>
      <point x="350" y="796"/>
      <point x="311" y="796" type="curve" smooth="yes"/>
      <point x="267" y="796"/>
      <point x="252" y="808"/>
      <point x="250" y="848" type="curve"/>
      <point x="182" y="848" type="line"/>
      <point x="185" y="778"/>
      <point x="214" y="729"/>
    </contour>
    <contour>
      <point x="292" y="865" type="curve"/>
      <point x="365" y="865" type="line"/>
      <point x="366" y="877" type="line"/>
      <point x="347" y="931"/>
      <point x="338" y="963"/>
      <point x="330" y="1000" type="curve"/>
      <point x="208" y="1000" type="line"/>
      <point x="208" y="991" type="line"/>
      <point x="224" y="957"/>
      <point x="266" y="898"/>
    </contour>
  </outline>
</glyph>
<glyph name="uni1FCD0306" format="2">
  <advance width="418"/>
  <anchor x="273" y="545" name="_top"/>
  <anchor x="312" y="907" name="top"/>
  <outline>
    <contour>
      <point x="285" y="594" type="curve" smooth="yes"/>
      <point x="375" y="594"/>
      <point x="423" y="642"/>
      <point x="444" y="721" type="curve"/>
      <point x="374" y="721" type="line"/>
      <point x="358" y="674"/>
      <point x="330" y="660"/>
      <point x="290" y="660" type="curve" smooth="yes"/>
      <point x="246" y="660"/>
      <point x="231" y="677"/>
      <point x="229" y="721" type="curve"/>
      <point x="161" y="721" type="line"/>
      <point x="164" y="642"/>
      <point x="193" y="594"/>
    </contour>
    <contour>
      <point x="179" y="741" type="line"/>
      <point x="254" y="744"/>
      <point x="305" y="797"/>
      <point x="305" y="848" type="curve" smooth="yes"/>
      <point x="305" y="890"/>
      <point x="286.993" y="907.005"/>
      <point x="254" y="907" type="curve" smooth="yes"/>
      <point x="221" y="907"/>
      <point x="201" y="885"/>
      <point x="201" y="856" type="curve" smooth="yes"/>
      <point x="201" y="831"/>
      <point x="217" y="819"/>
      <point x="235" y="818" type="curve"/>
      <point x="230" y="792"/>
      <point x="206" y="780"/>
      <point x="187" y="776" type="curve"/>
    </contour>
    <contour>
      <point x="369" y="746" type="curve"/>
      <point x="427" y="746" type="line"/>
      <point x="430" y="758" type="line"/>
      <point x="429" y="787"/>
      <point x="427" y="860"/>
      <point x="428" y="899" type="curve"/>
      <point x="328" y="899" type="line"/>
      <point x="326" y="889" type="line"/>
      <point x="332" y="847"/>
      <point x="352" y="788"/>
    </contour>
  </outline>
</glyph>
